%TF.GenerationSoftware,KiCad,Pcbnew,(6.0.2)*%
%TF.CreationDate,2023-05-04T12:33:08+02:00*%
%TF.ProjectId,ArduBatt,41726475-4261-4747-942e-6b696361645f,rev?*%
%TF.SameCoordinates,Original*%
%TF.FileFunction,Copper,L2,Bot*%
%TF.FilePolarity,Positive*%
%FSLAX46Y46*%
G04 Gerber Fmt 4.6, Leading zero omitted, Abs format (unit mm)*
G04 Created by KiCad (PCBNEW (6.0.2)) date 2023-05-04 12:33:08*
%MOMM*%
%LPD*%
G01*
G04 APERTURE LIST*
%TA.AperFunction,SMDPad,CuDef*%
%ADD10R,1.665000X1.665000*%
%TD*%
%TA.AperFunction,ViaPad*%
%ADD11C,0.800000*%
%TD*%
%TA.AperFunction,Conductor*%
%ADD12C,1.000000*%
%TD*%
%TA.AperFunction,Conductor*%
%ADD13C,0.400000*%
%TD*%
G04 APERTURE END LIST*
D10*
%TO.P,U2,1,D13*%
%TO.N,unconnected-(U2-Pad1)*%
X148500000Y-87105000D03*
%TO.P,U2,2,+3V3*%
%TO.N,unconnected-(U2-Pad2)*%
X145960000Y-87105000D03*
%TO.P,U2,3,AREF*%
%TO.N,unconnected-(U2-Pad3)*%
X143420000Y-87105000D03*
%TO.P,U2,4,A0/DAC0*%
%TO.N,unconnected-(U2-Pad4)*%
X140880000Y-87105000D03*
%TO.P,U2,5,A1*%
%TO.N,unconnected-(U2-Pad5)*%
X138340000Y-87105000D03*
%TO.P,U2,6,A2*%
%TO.N,unconnected-(U2-Pad6)*%
X135800000Y-87105000D03*
%TO.P,U2,7,A3*%
%TO.N,unconnected-(U2-Pad7)*%
X133260000Y-87105000D03*
%TO.P,U2,8,A4/SDA*%
%TO.N,unconnected-(U2-Pad8)*%
X130720000Y-87105000D03*
%TO.P,U2,9,A5/SCL*%
%TO.N,unconnected-(U2-Pad9)*%
X128180000Y-87105000D03*
%TO.P,U2,10,A6*%
%TO.N,unconnected-(U2-Pad10)*%
X125640000Y-87105000D03*
%TO.P,U2,11,A7*%
%TO.N,unconnected-(U2-Pad11)*%
X123100000Y-87105000D03*
%TO.P,U2,12,VUSB*%
%TO.N,VBUS*%
X120560000Y-87105000D03*
%TO.P,U2,13,RST_1*%
%TO.N,unconnected-(U2-Pad13)*%
X118020000Y-87105000D03*
%TO.P,U2,14,GND_1*%
%TO.N,GND*%
X115480000Y-87105000D03*
%TO.P,U2,15,VIN*%
%TO.N,Net-(D2-Pad1)*%
X112940000Y-87105000D03*
%TO.P,U2,16,TX*%
%TO.N,unconnected-(U2-Pad16)*%
X112940000Y-68605000D03*
%TO.P,U2,17,RX*%
%TO.N,unconnected-(U2-Pad17)*%
X115480000Y-68605000D03*
%TO.P,U2,18,RST_2*%
%TO.N,unconnected-(U2-Pad18)*%
X118020000Y-68605000D03*
%TO.P,U2,19,GND_2*%
%TO.N,unconnected-(U2-Pad19)*%
X120560000Y-68605000D03*
%TO.P,U2,20,D2*%
%TO.N,unconnected-(U2-Pad20)*%
X123100000Y-68605000D03*
%TO.P,U2,21,D3/PWM*%
%TO.N,unconnected-(U2-Pad21)*%
X125640000Y-68605000D03*
%TO.P,U2,22,D4*%
%TO.N,unconnected-(U2-Pad22)*%
X128180000Y-68605000D03*
%TO.P,U2,23,D5/PWM*%
%TO.N,unconnected-(U2-Pad23)*%
X130720000Y-68605000D03*
%TO.P,U2,24,D6/PWM*%
%TO.N,unconnected-(U2-Pad24)*%
X133260000Y-68605000D03*
%TO.P,U2,25,D7*%
%TO.N,unconnected-(U2-Pad25)*%
X135800000Y-68605000D03*
%TO.P,U2,26,D8*%
%TO.N,unconnected-(U2-Pad26)*%
X138340000Y-68605000D03*
%TO.P,U2,27,D9/PWM*%
%TO.N,unconnected-(U2-Pad27)*%
X140880000Y-68605000D03*
%TO.P,U2,28,D10/PWM*%
%TO.N,unconnected-(U2-Pad28)*%
X143420000Y-68605000D03*
%TO.P,U2,29,D11/MOSI*%
%TO.N,unconnected-(U2-Pad29)*%
X145960000Y-68605000D03*
%TO.P,U2,30,D12/MISO*%
%TO.N,unconnected-(U2-Pad30)*%
X148500000Y-68605000D03*
%TD*%
D11*
%TO.N,GND*%
X151900000Y-69400000D03*
X110300000Y-66100000D03*
X150800000Y-86800000D03*
X127200000Y-79200000D03*
X150600000Y-67631750D03*
%TO.N,/+BattSw*%
X144200000Y-72300000D03*
X150200000Y-73599500D03*
%TO.N,VBUS*%
X150300000Y-71000000D03*
X120250000Y-89750000D03*
X152250000Y-87500000D03*
X110500000Y-72000000D03*
%TO.N,+BATT*%
X109499520Y-79000000D03*
X141800000Y-71900000D03*
%TO.N,Net-(D2-Pad1)*%
X113000000Y-89750000D03*
%TD*%
D12*
%TO.N,GND*%
X117300000Y-79200000D02*
X112300000Y-74200000D01*
X115480000Y-87105000D02*
X115480000Y-85680000D01*
D13*
X150600000Y-67631750D02*
X150600000Y-69100000D01*
X150600000Y-69100000D02*
X149400000Y-70300000D01*
D12*
X114500000Y-84700000D02*
X109000000Y-84700000D01*
X115480000Y-85680000D02*
X114500000Y-84700000D01*
X112300000Y-74200000D02*
X112300000Y-71300000D01*
D13*
X149400000Y-70300000D02*
X149400000Y-71500000D01*
X151900000Y-69400000D02*
X151600000Y-69100000D01*
X151250000Y-86350000D02*
X150800000Y-86800000D01*
D12*
X127200000Y-79200000D02*
X117300000Y-79200000D01*
D13*
X151600000Y-69100000D02*
X150600000Y-69100000D01*
D12*
X110300000Y-69972113D02*
X110300000Y-66100000D01*
X106700000Y-73300000D02*
X110027887Y-69972113D01*
D13*
X149400000Y-71500000D02*
X151250000Y-73350000D01*
D12*
X110972113Y-69972113D02*
X110300000Y-69972113D01*
X106700000Y-82400000D02*
X106700000Y-73300000D01*
X112300000Y-71300000D02*
X110972113Y-69972113D01*
D13*
X151250000Y-73350000D02*
X151250000Y-86350000D01*
D12*
X109000000Y-84700000D02*
X106700000Y-82400000D01*
X110027887Y-69972113D02*
X110300000Y-69972113D01*
D13*
%TO.N,/+BattSw*%
X150200000Y-73599500D02*
X145499500Y-73599500D01*
X145499500Y-73599500D02*
X144200000Y-72300000D01*
D12*
%TO.N,VBUS*%
X117079022Y-83100000D02*
X120560000Y-86580978D01*
X120560000Y-86580978D02*
X120560000Y-87105000D01*
D13*
X150300000Y-71000000D02*
X151900000Y-71000000D01*
X151900000Y-71000000D02*
X152500000Y-71600000D01*
D12*
X120250000Y-87415000D02*
X120560000Y-87105000D01*
D13*
X152500000Y-87250000D02*
X152250000Y-87500000D01*
D12*
X110500000Y-72000000D02*
X108300000Y-74200000D01*
X108300000Y-81600000D02*
X109800000Y-83100000D01*
X120250000Y-89750000D02*
X120250000Y-87415000D01*
D13*
X152500000Y-71600000D02*
X152500000Y-87250000D01*
D12*
X109800000Y-83100000D02*
X117079022Y-83100000D01*
X108300000Y-74200000D02*
X108300000Y-81600000D01*
%TO.N,+BATT*%
X141700000Y-72000000D02*
X134000000Y-72000000D01*
X131100000Y-74900000D02*
X131100000Y-79300000D01*
X129100000Y-81300000D02*
X111799520Y-81300000D01*
X131100000Y-79300000D02*
X129100000Y-81300000D01*
X111799520Y-81300000D02*
X109499520Y-79000000D01*
X134000000Y-72000000D02*
X131100000Y-74900000D01*
X141800000Y-71900000D02*
X141700000Y-72000000D01*
%TO.N,Net-(D2-Pad1)*%
X112940000Y-87105000D02*
X112940000Y-89690000D01*
X112940000Y-89690000D02*
X113000000Y-89750000D01*
%TD*%
M02*
