%TF.GenerationSoftware,KiCad,Pcbnew,(6.0.2)*%
%TF.CreationDate,2023-05-04T12:33:09+02:00*%
%TF.ProjectId,ArduBatt,41726475-4261-4747-942e-6b696361645f,rev?*%
%TF.SameCoordinates,Original*%
%TF.FileFunction,Legend,Top*%
%TF.FilePolarity,Positive*%
%FSLAX46Y46*%
G04 Gerber Fmt 4.6, Leading zero omitted, Abs format (unit mm)*
G04 Created by KiCad (PCBNEW (6.0.2)) date 2023-05-04 12:33:09*
%MOMM*%
%LPD*%
G01*
G04 APERTURE LIST*
%ADD10C,0.120000*%
%ADD11C,0.150000*%
%ADD12C,0.200000*%
%ADD13C,0.071590*%
%ADD14C,0.152400*%
%ADD15C,0.100000*%
G04 APERTURE END LIST*
D10*
%TO.C,C5*%
X146000000Y-79014285D02*
X145971428Y-79042857D01*
X145885714Y-79071428D01*
X145828571Y-79071428D01*
X145742857Y-79042857D01*
X145685714Y-78985714D01*
X145657142Y-78928571D01*
X145628571Y-78814285D01*
X145628571Y-78728571D01*
X145657142Y-78614285D01*
X145685714Y-78557142D01*
X145742857Y-78500000D01*
X145828571Y-78471428D01*
X145885714Y-78471428D01*
X145971428Y-78500000D01*
X146000000Y-78528571D01*
X146542857Y-78471428D02*
X146257142Y-78471428D01*
X146228571Y-78757142D01*
X146257142Y-78728571D01*
X146314285Y-78700000D01*
X146457142Y-78700000D01*
X146514285Y-78728571D01*
X146542857Y-78757142D01*
X146571428Y-78814285D01*
X146571428Y-78957142D01*
X146542857Y-79014285D01*
X146514285Y-79042857D01*
X146457142Y-79071428D01*
X146314285Y-79071428D01*
X146257142Y-79042857D01*
X146228571Y-79014285D01*
D11*
%TO.C,D2*%
X106952380Y-86738095D02*
X105952380Y-86738095D01*
X105952380Y-86500000D01*
X106000000Y-86357142D01*
X106095238Y-86261904D01*
X106190476Y-86214285D01*
X106380952Y-86166666D01*
X106523809Y-86166666D01*
X106714285Y-86214285D01*
X106809523Y-86261904D01*
X106904761Y-86357142D01*
X106952380Y-86500000D01*
X106952380Y-86738095D01*
X106047619Y-85785714D02*
X106000000Y-85738095D01*
X105952380Y-85642857D01*
X105952380Y-85404761D01*
X106000000Y-85309523D01*
X106047619Y-85261904D01*
X106142857Y-85214285D01*
X106238095Y-85214285D01*
X106380952Y-85261904D01*
X106952380Y-85833333D01*
X106952380Y-85214285D01*
D10*
%TO.C,C4*%
X138200000Y-82814285D02*
X138171428Y-82842857D01*
X138085714Y-82871428D01*
X138028571Y-82871428D01*
X137942857Y-82842857D01*
X137885714Y-82785714D01*
X137857142Y-82728571D01*
X137828571Y-82614285D01*
X137828571Y-82528571D01*
X137857142Y-82414285D01*
X137885714Y-82357142D01*
X137942857Y-82300000D01*
X138028571Y-82271428D01*
X138085714Y-82271428D01*
X138171428Y-82300000D01*
X138200000Y-82328571D01*
X138714285Y-82471428D02*
X138714285Y-82871428D01*
X138571428Y-82242857D02*
X138428571Y-82671428D01*
X138800000Y-82671428D01*
%TO.C,D1*%
X110057142Y-70171428D02*
X110057142Y-69571428D01*
X110200000Y-69571428D01*
X110285714Y-69600000D01*
X110342857Y-69657142D01*
X110371428Y-69714285D01*
X110400000Y-69828571D01*
X110400000Y-69914285D01*
X110371428Y-70028571D01*
X110342857Y-70085714D01*
X110285714Y-70142857D01*
X110200000Y-70171428D01*
X110057142Y-70171428D01*
X110971428Y-70171428D02*
X110628571Y-70171428D01*
X110800000Y-70171428D02*
X110800000Y-69571428D01*
X110742857Y-69657142D01*
X110685714Y-69714285D01*
X110628571Y-69742857D01*
%TO.C,R8*%
X146050000Y-87271428D02*
X145850000Y-86985714D01*
X145707142Y-87271428D02*
X145707142Y-86671428D01*
X145935714Y-86671428D01*
X145992857Y-86700000D01*
X146021428Y-86728571D01*
X146050000Y-86785714D01*
X146050000Y-86871428D01*
X146021428Y-86928571D01*
X145992857Y-86957142D01*
X145935714Y-86985714D01*
X145707142Y-86985714D01*
X146392857Y-86928571D02*
X146335714Y-86900000D01*
X146307142Y-86871428D01*
X146278571Y-86814285D01*
X146278571Y-86785714D01*
X146307142Y-86728571D01*
X146335714Y-86700000D01*
X146392857Y-86671428D01*
X146507142Y-86671428D01*
X146564285Y-86700000D01*
X146592857Y-86728571D01*
X146621428Y-86785714D01*
X146621428Y-86814285D01*
X146592857Y-86871428D01*
X146564285Y-86900000D01*
X146507142Y-86928571D01*
X146392857Y-86928571D01*
X146335714Y-86957142D01*
X146307142Y-86985714D01*
X146278571Y-87042857D01*
X146278571Y-87157142D01*
X146307142Y-87214285D01*
X146335714Y-87242857D01*
X146392857Y-87271428D01*
X146507142Y-87271428D01*
X146564285Y-87242857D01*
X146592857Y-87214285D01*
X146621428Y-87157142D01*
X146621428Y-87042857D01*
X146592857Y-86985714D01*
X146564285Y-86957142D01*
X146507142Y-86928571D01*
%TO.C,R4*%
X110400000Y-67571428D02*
X110200000Y-67285714D01*
X110057142Y-67571428D02*
X110057142Y-66971428D01*
X110285714Y-66971428D01*
X110342857Y-67000000D01*
X110371428Y-67028571D01*
X110400000Y-67085714D01*
X110400000Y-67171428D01*
X110371428Y-67228571D01*
X110342857Y-67257142D01*
X110285714Y-67285714D01*
X110057142Y-67285714D01*
X110914285Y-67171428D02*
X110914285Y-67571428D01*
X110771428Y-66942857D02*
X110628571Y-67371428D01*
X111000000Y-67371428D01*
%TO.C,C1*%
X144500000Y-77414285D02*
X144471428Y-77442857D01*
X144385714Y-77471428D01*
X144328571Y-77471428D01*
X144242857Y-77442857D01*
X144185714Y-77385714D01*
X144157142Y-77328571D01*
X144128571Y-77214285D01*
X144128571Y-77128571D01*
X144157142Y-77014285D01*
X144185714Y-76957142D01*
X144242857Y-76900000D01*
X144328571Y-76871428D01*
X144385714Y-76871428D01*
X144471428Y-76900000D01*
X144500000Y-76928571D01*
X145071428Y-77471428D02*
X144728571Y-77471428D01*
X144900000Y-77471428D02*
X144900000Y-76871428D01*
X144842857Y-76957142D01*
X144785714Y-77014285D01*
X144728571Y-77042857D01*
%TO.C,IC3*%
X143914285Y-85271428D02*
X143914285Y-84671428D01*
X144542857Y-85214285D02*
X144514285Y-85242857D01*
X144428571Y-85271428D01*
X144371428Y-85271428D01*
X144285714Y-85242857D01*
X144228571Y-85185714D01*
X144200000Y-85128571D01*
X144171428Y-85014285D01*
X144171428Y-84928571D01*
X144200000Y-84814285D01*
X144228571Y-84757142D01*
X144285714Y-84700000D01*
X144371428Y-84671428D01*
X144428571Y-84671428D01*
X144514285Y-84700000D01*
X144542857Y-84728571D01*
X144742857Y-84671428D02*
X145114285Y-84671428D01*
X144914285Y-84900000D01*
X145000000Y-84900000D01*
X145057142Y-84928571D01*
X145085714Y-84957142D01*
X145114285Y-85014285D01*
X145114285Y-85157142D01*
X145085714Y-85214285D01*
X145057142Y-85242857D01*
X145000000Y-85271428D01*
X144828571Y-85271428D01*
X144771428Y-85242857D01*
X144742857Y-85214285D01*
%TO.C,R6*%
X152000000Y-71171428D02*
X151800000Y-70885714D01*
X151657142Y-71171428D02*
X151657142Y-70571428D01*
X151885714Y-70571428D01*
X151942857Y-70600000D01*
X151971428Y-70628571D01*
X152000000Y-70685714D01*
X152000000Y-70771428D01*
X151971428Y-70828571D01*
X151942857Y-70857142D01*
X151885714Y-70885714D01*
X151657142Y-70885714D01*
X152514285Y-70571428D02*
X152400000Y-70571428D01*
X152342857Y-70600000D01*
X152314285Y-70628571D01*
X152257142Y-70714285D01*
X152228571Y-70828571D01*
X152228571Y-71057142D01*
X152257142Y-71114285D01*
X152285714Y-71142857D01*
X152342857Y-71171428D01*
X152457142Y-71171428D01*
X152514285Y-71142857D01*
X152542857Y-71114285D01*
X152571428Y-71057142D01*
X152571428Y-70914285D01*
X152542857Y-70857142D01*
X152514285Y-70828571D01*
X152457142Y-70800000D01*
X152342857Y-70800000D01*
X152285714Y-70828571D01*
X152257142Y-70857142D01*
X152228571Y-70914285D01*
%TO.C,C2*%
X141900000Y-82614285D02*
X141871428Y-82642857D01*
X141785714Y-82671428D01*
X141728571Y-82671428D01*
X141642857Y-82642857D01*
X141585714Y-82585714D01*
X141557142Y-82528571D01*
X141528571Y-82414285D01*
X141528571Y-82328571D01*
X141557142Y-82214285D01*
X141585714Y-82157142D01*
X141642857Y-82100000D01*
X141728571Y-82071428D01*
X141785714Y-82071428D01*
X141871428Y-82100000D01*
X141900000Y-82128571D01*
X142128571Y-82128571D02*
X142157142Y-82100000D01*
X142214285Y-82071428D01*
X142357142Y-82071428D01*
X142414285Y-82100000D01*
X142442857Y-82128571D01*
X142471428Y-82185714D01*
X142471428Y-82242857D01*
X142442857Y-82328571D01*
X142100000Y-82671428D01*
X142471428Y-82671428D01*
%TO.C,S1*%
X137242857Y-69342857D02*
X137328571Y-69371428D01*
X137471428Y-69371428D01*
X137528571Y-69342857D01*
X137557142Y-69314285D01*
X137585714Y-69257142D01*
X137585714Y-69200000D01*
X137557142Y-69142857D01*
X137528571Y-69114285D01*
X137471428Y-69085714D01*
X137357142Y-69057142D01*
X137300000Y-69028571D01*
X137271428Y-69000000D01*
X137242857Y-68942857D01*
X137242857Y-68885714D01*
X137271428Y-68828571D01*
X137300000Y-68800000D01*
X137357142Y-68771428D01*
X137500000Y-68771428D01*
X137585714Y-68800000D01*
X138157142Y-69371428D02*
X137814285Y-69371428D01*
X137985714Y-69371428D02*
X137985714Y-68771428D01*
X137928571Y-68857142D01*
X137871428Y-68914285D01*
X137814285Y-68942857D01*
%TO.C,IC2*%
X146571428Y-74785714D02*
X145971428Y-74785714D01*
X146514285Y-74157142D02*
X146542857Y-74185714D01*
X146571428Y-74271428D01*
X146571428Y-74328571D01*
X146542857Y-74414285D01*
X146485714Y-74471428D01*
X146428571Y-74500000D01*
X146314285Y-74528571D01*
X146228571Y-74528571D01*
X146114285Y-74500000D01*
X146057142Y-74471428D01*
X146000000Y-74414285D01*
X145971428Y-74328571D01*
X145971428Y-74271428D01*
X146000000Y-74185714D01*
X146028571Y-74157142D01*
X146028571Y-73928571D02*
X146000000Y-73900000D01*
X145971428Y-73842857D01*
X145971428Y-73700000D01*
X146000000Y-73642857D01*
X146028571Y-73614285D01*
X146085714Y-73585714D01*
X146142857Y-73585714D01*
X146228571Y-73614285D01*
X146571428Y-73957142D01*
X146571428Y-73585714D01*
%TO.C,R3*%
X151900000Y-76371428D02*
X151700000Y-76085714D01*
X151557142Y-76371428D02*
X151557142Y-75771428D01*
X151785714Y-75771428D01*
X151842857Y-75800000D01*
X151871428Y-75828571D01*
X151900000Y-75885714D01*
X151900000Y-75971428D01*
X151871428Y-76028571D01*
X151842857Y-76057142D01*
X151785714Y-76085714D01*
X151557142Y-76085714D01*
X152100000Y-75771428D02*
X152471428Y-75771428D01*
X152271428Y-76000000D01*
X152357142Y-76000000D01*
X152414285Y-76028571D01*
X152442857Y-76057142D01*
X152471428Y-76114285D01*
X152471428Y-76257142D01*
X152442857Y-76314285D01*
X152414285Y-76342857D01*
X152357142Y-76371428D01*
X152185714Y-76371428D01*
X152128571Y-76342857D01*
X152100000Y-76314285D01*
%TO.C,IC1*%
X147271428Y-81485714D02*
X146671428Y-81485714D01*
X147214285Y-80857142D02*
X147242857Y-80885714D01*
X147271428Y-80971428D01*
X147271428Y-81028571D01*
X147242857Y-81114285D01*
X147185714Y-81171428D01*
X147128571Y-81200000D01*
X147014285Y-81228571D01*
X146928571Y-81228571D01*
X146814285Y-81200000D01*
X146757142Y-81171428D01*
X146700000Y-81114285D01*
X146671428Y-81028571D01*
X146671428Y-80971428D01*
X146700000Y-80885714D01*
X146728571Y-80857142D01*
X147271428Y-80285714D02*
X147271428Y-80628571D01*
X147271428Y-80457142D02*
X146671428Y-80457142D01*
X146757142Y-80514285D01*
X146814285Y-80571428D01*
X146842857Y-80628571D01*
%TO.C,L1*%
X144100000Y-79671428D02*
X143814285Y-79671428D01*
X143814285Y-79071428D01*
X144614285Y-79671428D02*
X144271428Y-79671428D01*
X144442857Y-79671428D02*
X144442857Y-79071428D01*
X144385714Y-79157142D01*
X144328571Y-79214285D01*
X144271428Y-79242857D01*
%TO.C,U1*%
X122042857Y-75771428D02*
X122042857Y-76257142D01*
X122071428Y-76314285D01*
X122100000Y-76342857D01*
X122157142Y-76371428D01*
X122271428Y-76371428D01*
X122328571Y-76342857D01*
X122357142Y-76314285D01*
X122385714Y-76257142D01*
X122385714Y-75771428D01*
X122985714Y-76371428D02*
X122642857Y-76371428D01*
X122814285Y-76371428D02*
X122814285Y-75771428D01*
X122757142Y-75857142D01*
X122700000Y-75914285D01*
X122642857Y-75942857D01*
%TO.C,C3*%
X149500000Y-84614285D02*
X149471428Y-84642857D01*
X149385714Y-84671428D01*
X149328571Y-84671428D01*
X149242857Y-84642857D01*
X149185714Y-84585714D01*
X149157142Y-84528571D01*
X149128571Y-84414285D01*
X149128571Y-84328571D01*
X149157142Y-84214285D01*
X149185714Y-84157142D01*
X149242857Y-84100000D01*
X149328571Y-84071428D01*
X149385714Y-84071428D01*
X149471428Y-84100000D01*
X149500000Y-84128571D01*
X149700000Y-84071428D02*
X150071428Y-84071428D01*
X149871428Y-84300000D01*
X149957142Y-84300000D01*
X150014285Y-84328571D01*
X150042857Y-84357142D01*
X150071428Y-84414285D01*
X150071428Y-84557142D01*
X150042857Y-84614285D01*
X150014285Y-84642857D01*
X149957142Y-84671428D01*
X149785714Y-84671428D01*
X149728571Y-84642857D01*
X149700000Y-84614285D01*
%TO.C,R2*%
X152100000Y-73771428D02*
X151900000Y-73485714D01*
X151757142Y-73771428D02*
X151757142Y-73171428D01*
X151985714Y-73171428D01*
X152042857Y-73200000D01*
X152071428Y-73228571D01*
X152100000Y-73285714D01*
X152100000Y-73371428D01*
X152071428Y-73428571D01*
X152042857Y-73457142D01*
X151985714Y-73485714D01*
X151757142Y-73485714D01*
X152328571Y-73228571D02*
X152357142Y-73200000D01*
X152414285Y-73171428D01*
X152557142Y-73171428D01*
X152614285Y-73200000D01*
X152642857Y-73228571D01*
X152671428Y-73285714D01*
X152671428Y-73342857D01*
X152642857Y-73428571D01*
X152300000Y-73771428D01*
X152671428Y-73771428D01*
%TO.C,R1*%
X150200000Y-83571428D02*
X150000000Y-83285714D01*
X149857142Y-83571428D02*
X149857142Y-82971428D01*
X150085714Y-82971428D01*
X150142857Y-83000000D01*
X150171428Y-83028571D01*
X150200000Y-83085714D01*
X150200000Y-83171428D01*
X150171428Y-83228571D01*
X150142857Y-83257142D01*
X150085714Y-83285714D01*
X149857142Y-83285714D01*
X150771428Y-83571428D02*
X150428571Y-83571428D01*
X150600000Y-83571428D02*
X150600000Y-82971428D01*
X150542857Y-83057142D01*
X150485714Y-83114285D01*
X150428571Y-83142857D01*
%TO.C,R5*%
X148700000Y-68571428D02*
X148500000Y-68285714D01*
X148357142Y-68571428D02*
X148357142Y-67971428D01*
X148585714Y-67971428D01*
X148642857Y-68000000D01*
X148671428Y-68028571D01*
X148700000Y-68085714D01*
X148700000Y-68171428D01*
X148671428Y-68228571D01*
X148642857Y-68257142D01*
X148585714Y-68285714D01*
X148357142Y-68285714D01*
X149242857Y-67971428D02*
X148957142Y-67971428D01*
X148928571Y-68257142D01*
X148957142Y-68228571D01*
X149014285Y-68200000D01*
X149157142Y-68200000D01*
X149214285Y-68228571D01*
X149242857Y-68257142D01*
X149271428Y-68314285D01*
X149271428Y-68457142D01*
X149242857Y-68514285D01*
X149214285Y-68542857D01*
X149157142Y-68571428D01*
X149014285Y-68571428D01*
X148957142Y-68542857D01*
X148928571Y-68514285D01*
%TO.C,D3*%
X110057142Y-73371428D02*
X110057142Y-72771428D01*
X110200000Y-72771428D01*
X110285714Y-72800000D01*
X110342857Y-72857142D01*
X110371428Y-72914285D01*
X110400000Y-73028571D01*
X110400000Y-73114285D01*
X110371428Y-73228571D01*
X110342857Y-73285714D01*
X110285714Y-73342857D01*
X110200000Y-73371428D01*
X110057142Y-73371428D01*
X110600000Y-72771428D02*
X110971428Y-72771428D01*
X110771428Y-73000000D01*
X110857142Y-73000000D01*
X110914285Y-73028571D01*
X110942857Y-73057142D01*
X110971428Y-73114285D01*
X110971428Y-73257142D01*
X110942857Y-73314285D01*
X110914285Y-73342857D01*
X110857142Y-73371428D01*
X110685714Y-73371428D01*
X110628571Y-73342857D01*
X110600000Y-73314285D01*
%TO.C,R7*%
X110400000Y-75271428D02*
X110200000Y-74985714D01*
X110057142Y-75271428D02*
X110057142Y-74671428D01*
X110285714Y-74671428D01*
X110342857Y-74700000D01*
X110371428Y-74728571D01*
X110400000Y-74785714D01*
X110400000Y-74871428D01*
X110371428Y-74928571D01*
X110342857Y-74957142D01*
X110285714Y-74985714D01*
X110057142Y-74985714D01*
X110600000Y-74671428D02*
X111000000Y-74671428D01*
X110742857Y-75271428D01*
%TO.C,C5*%
X148738748Y-78265000D02*
X149261252Y-78265000D01*
X148738748Y-79735000D02*
X149261252Y-79735000D01*
%TO.C,D2*%
X107140000Y-89080000D02*
X107140000Y-84100000D01*
X109860000Y-89080000D02*
X109860000Y-84100000D01*
X107140000Y-89080000D02*
X109860000Y-89080000D01*
%TO.C,C4*%
X137315000Y-87985000D02*
X139185000Y-87985000D01*
X137315000Y-83900000D02*
X137315000Y-87985000D01*
X139185000Y-87985000D02*
X139185000Y-83900000D01*
%TO.C,D1*%
X109000000Y-68790000D02*
X106140000Y-68790000D01*
X106140000Y-70710000D02*
X109000000Y-70710000D01*
X106140000Y-68790000D02*
X106140000Y-70710000D01*
%TO.C,R8*%
X147035000Y-84372936D02*
X147035000Y-84827064D01*
X145565000Y-84372936D02*
X145565000Y-84827064D01*
%TO.C,R4*%
X108227064Y-67935000D02*
X107772936Y-67935000D01*
X108227064Y-66465000D02*
X107772936Y-66465000D01*
%TO.C,C1*%
X146200000Y-77935000D02*
X150285000Y-77935000D01*
X150285000Y-76065000D02*
X146200000Y-76065000D01*
X150285000Y-77935000D02*
X150285000Y-76065000D01*
D12*
%TO.C,IC3*%
X142800000Y-88200000D02*
X142800000Y-85300000D01*
X141050000Y-85250000D02*
X142450000Y-85250000D01*
X143200000Y-88200000D02*
X142800000Y-88200000D01*
X142800000Y-85300000D02*
X143200000Y-85300000D01*
X143200000Y-85300000D02*
X143200000Y-88200000D01*
D10*
%TO.C,R6*%
X150872936Y-73035000D02*
X151327064Y-73035000D01*
X150872936Y-71565000D02*
X151327064Y-71565000D01*
%TO.C,C2*%
X144100000Y-82965000D02*
X140015000Y-82965000D01*
X140015000Y-82965000D02*
X140015000Y-84835000D01*
X140015000Y-84835000D02*
X144100000Y-84835000D01*
D12*
%TO.C,S1*%
X146300000Y-69900000D02*
X145123000Y-69900000D01*
D13*
X138186000Y-75368000D02*
X138186000Y-75368000D01*
D12*
X146300000Y-72900000D02*
X145123000Y-72900000D01*
X137300000Y-69900000D02*
X138477000Y-69900000D01*
X146300000Y-72900000D02*
X146300000Y-69900000D01*
D13*
X138258000Y-75368000D02*
X138258000Y-75368000D01*
D12*
X137300000Y-72900000D02*
X138477000Y-72900000D01*
X137300000Y-69900000D02*
X137300000Y-72900000D01*
D13*
X138258000Y-75368000D02*
G75*
G03*
X138186000Y-75368000I-36000J0D01*
G01*
X138186000Y-75368000D02*
G75*
G03*
X138258000Y-75368000I36000J0D01*
G01*
D10*
%TO.C,IC2*%
X147040000Y-72700000D02*
X147040000Y-74100000D01*
X149360000Y-74100000D02*
X149360000Y-72200000D01*
%TO.C,R3*%
X151065000Y-78427064D02*
X151065000Y-77972936D01*
X152535000Y-78427064D02*
X152535000Y-77972936D01*
D12*
%TO.C,IC1*%
X147450000Y-81700000D02*
X150350000Y-81700000D01*
X147450000Y-82300000D02*
X147450000Y-81700000D01*
X147300000Y-83850000D02*
X147300000Y-82650000D01*
X150350000Y-81700000D02*
X150350000Y-82300000D01*
X150350000Y-82300000D02*
X147450000Y-82300000D01*
D14*
%TO.C,L1*%
X145011200Y-79955400D02*
X143588800Y-79955400D01*
X143588800Y-82444600D02*
X145011200Y-82444600D01*
D15*
%TO.C,U1*%
X111300000Y-66150000D02*
X136700000Y-66150000D01*
X136700000Y-83930000D02*
X136700000Y-89470000D01*
X111300000Y-89470000D02*
X111300000Y-83930000D01*
X136700000Y-66150000D02*
X136700000Y-73770000D01*
X111300000Y-73770000D02*
X111300000Y-66150000D01*
X136700000Y-89470000D02*
X111300000Y-89470000D01*
D10*
%TO.C,C3*%
X153235000Y-86935000D02*
X153235000Y-85065000D01*
X153235000Y-85065000D02*
X149150000Y-85065000D01*
X149150000Y-86935000D02*
X153235000Y-86935000D01*
%TO.C,R2*%
X151427064Y-75335000D02*
X150972936Y-75335000D01*
X151427064Y-73865000D02*
X150972936Y-73865000D01*
%TO.C,R1*%
X152535000Y-82127064D02*
X152535000Y-81672936D01*
X151065000Y-82127064D02*
X151065000Y-81672936D01*
%TO.C,R5*%
X148995814Y-70416250D02*
X148541686Y-70416250D01*
X148995814Y-68946250D02*
X148541686Y-68946250D01*
%TO.C,D3*%
X106140000Y-71290000D02*
X106140000Y-73210000D01*
X106140000Y-73210000D02*
X109000000Y-73210000D01*
X109000000Y-71290000D02*
X106140000Y-71290000D01*
%TO.C,R7*%
X108227064Y-75135000D02*
X107772936Y-75135000D01*
X108227064Y-73665000D02*
X107772936Y-73665000D01*
%TD*%
M02*
